<?xml version="1.0" standalone="no"?>
<!DOCTYPE svg PUBLIC "-//W3C//DTD SVG 20010904//EN"
 "http://www.w3.org/TR/2001/REC-SVG-20010904/DTD/svg10.dtd">
<svg version="1.0" xmlns="http://www.w3.org/2000/svg"
 width="500.000000pt" height="500.000000pt" viewBox="0 0 500.000000 500.000000"
 preserveAspectRatio="xMidYMid meet">

<g transform="translate(0.000000,500.000000) scale(0.100000,-0.100000)"
fill="#000000" stroke="none">
<path d="M2265 4246 c-49 -50 -130 -127 -180 -170 -236 -206 -552 -526 -910
-921 -220 -244 -350 -376 -527 -534 -71 -63 -128 -119 -128 -125 0 -11 950
-958 1255 -1250 166 -159 519 -468 582 -510 27 -18 31 -25 26 -50 -6 -27 -5
-28 18 -16 13 7 48 29 77 47 l54 35 32 -31 c18 -17 37 -31 43 -31 6 0 13 -7
15 -15 6 -31 124 61 307 240 364 357 510 504 720 728 118 126 353 368 523 537
169 169 308 313 308 318 0 14 -238 228 -340 306 -58 44 -104 93 -171 180 -100
129 -390 426 -584 598 -66 59 -235 222 -375 363 -140 141 -290 288 -333 327
l-78 71 -53 -59 -53 -58 -50 41 c-28 24 -56 49 -63 58 -7 8 -15 15 -19 14 -3
0 -46 -42 -96 -93z m158 -84 c-134 -95 -622 -583 -1004 -1002 -163 -179 -321
-347 -351 -375 -30 -27 -112 -101 -181 -164 -70 -62 -127 -118 -127 -125 0
-15 1142 -1150 1350 -1340 90 -83 209 -194 264 -247 l99 -96 -33 -41 -33 -41
-191 197 c-105 108 -369 372 -586 586 -217 215 -495 489 -618 611 -123 121
-255 255 -294 297 l-70 77 93 88 c51 48 284 288 519 533 235 245 520 535 634
645 114 110 266 264 338 343 l131 143 39 -38 c36 -35 37 -39 21 -51z m560
-684 c33 -17 15 -42 -39 -54 -29 -6 -57 -14 -63 -18 -6 -4 -11 -2 -11 4 0 6 7
13 15 16 22 9 18 23 -9 36 -14 6 -27 16 -30 23 -3 10 10 12 57 8 34 -3 70 -10
80 -15z m-759 -60 c7 -12 7 -29 0 -55 -9 -36 -9 -38 13 -39 13 -1 30 -7 38
-14 22 -18 36 -83 29 -132 -14 -91 -64 -148 -129 -148 -27 0 -30 4 -39 59 -6
33 -6 34 13 17 26 -24 60 -17 85 17 17 23 21 43 21 100 0 70 -1 72 -25 72 -22
0 -32 -15 -86 -125 -63 -129 -83 -156 -109 -146 -23 8 -18 29 15 72 41 50 103
154 97 160 -2 2 -15 0 -29 -5 -32 -12 -72 7 -76 35 -3 19 1 20 53 16 35 -3 60
0 70 8 20 17 20 90 0 90 -20 0 -19 17 3 29 23 14 42 10 56 -11z m280 -8 c16
-6 26 -17 26 -30 0 -26 -13 -25 -55 3 -48 32 -29 49 29 27z m-41 -48 c12 -13
14 -21 6 -29 -9 -9 -22 -5 -50 14 -22 14 -39 27 -39 29 0 13 70 1 83 -14z
m569 -53 c54 -105 -23 -259 -160 -321 -24 -11 -45 -18 -48 -16 -2 3 16 19 40
37 79 60 127 145 128 227 1 78 -46 122 -82 78 -23 -27 -47 -35 -74 -24 -20 7
-26 16 -26 40 0 16 5 30 10 30 6 0 10 -5 10 -11 0 -11 20 -9 90 9 49 12 91 -6
112 -49z m-599 -11 c26 -8 46 -22 58 -42 24 -39 24 -58 2 -84 -16 -18 -26 -20
-73 -15 l-55 6 34 12 c19 6 39 19 45 27 16 25 -9 67 -49 84 -61 25 -34 34 38
12z m-217 -608 c6 -25 9 -27 25 -17 14 9 21 9 30 0 15 -15 5 -29 -40 -57 -33
-21 -40 -33 -64 -112 -15 -49 -31 -111 -37 -139 -13 -57 -34 -95 -55 -95 -28
0 -26 39 5 111 32 72 80 195 80 204 0 3 -15 5 -33 5 -18 0 -43 7 -55 16 -27
19 -31 50 -4 39 9 -4 36 -10 60 -12 l42 -6 0 36 c0 24 -5 37 -17 42 -17 6 -17
7 1 20 26 19 55 3 62 -35z m240 -85 c31 -20 30 -33 -3 -46 -16 -6 -45 -19 -65
-29 -44 -21 -46 -19 -16 20 25 34 22 39 -24 50 l-33 7 25 11 c31 14 84 8 116
-13z m607 11 c69 -29 103 -103 77 -166 -33 -79 -162 -141 -289 -139 l-66 1 70
17 c96 24 158 56 199 102 42 46 52 79 36 118 -32 78 -159 66 -259 -24 -48 -43
-78 -55 -113 -43 -31 11 -46 38 -21 38 9 0 50 18 91 41 41 23 91 47 111 54 48
18 124 18 164 1z m-784 -228 c-5 -40 27 -58 101 -58 58 0 80 -7 80 -26 0 -22
-49 -36 -98 -30 -74 10 -122 58 -107 106 7 22 27 28 24 8z m-64 -399 c4 -11 3
-34 -1 -52 -6 -32 -6 -32 14 -13 25 22 65 24 89 5 49 -41 67 -159 38 -257 -17
-55 -96 -151 -146 -177 -43 -23 -42 -19 11 35 64 66 93 140 94 240 0 122 -44
176 -93 114 -24 -30 -27 -77 -10 -135 9 -30 9 -42 0 -53 -19 -22 -39 -8 -53
35 -9 32 -8 57 7 139 15 83 16 102 5 115 -12 14 -12 18 0 25 18 11 38 2 45
-21z m645 -24 c7 -9 12 -39 11 -70 -1 -43 2 -55 14 -55 23 0 18 -32 -10 -70
-33 -45 -32 -48 9 -12 46 40 116 66 158 58 47 -9 97 -42 108 -72 33 -85 -13
-160 -130 -213 -75 -34 -88 -24 -23 18 68 44 103 92 103 142 0 106 -133 128
-224 38 -38 -38 -39 -41 -33 -92 4 -28 9 -69 13 -89 5 -30 3 -39 -11 -44 -18
-7 -35 10 -35 38 0 9 -5 29 -11 45 l-11 28 -21 -45 c-12 -25 -30 -46 -39 -48
-28 -5 -22 37 12 88 26 39 28 47 16 65 -36 56 -41 68 -29 72 7 2 35 23 62 45
47 38 51 45 51 83 0 27 -7 51 -20 68 -11 14 -20 28 -20 31 0 13 48 5 60 -9z"/>
<path d="M2803 1758 c-12 -21 -27 -38 -33 -38 -13 0 -13 -37 -1 -45 17 -10 63
61 59 92 l-3 28 -22 -37z"/>
<path d="M2805 1658 c-4 -10 -4 -26 0 -35 8 -17 8 -17 12 0 3 9 3 25 0 35 -4
16 -4 16 -12 0z"/>
</g>
</svg>
